#N canvas 146 113 724 481 12;
#X declare -lib aoo;
#N canvas 756 83 483 503 clock 0;
#X obj 69 218 int 0;
#X obj 125 219 + 1;
#X msg 12 173 0;
#X obj 220 292 %;
#X floatatom 220 327 5 0 0 0 - - - 12;
#X floatatom 69 327 5 0 0 0 - - - 12;
#X obj 69 292 div;
#X obj 12 137 route 1;
#X obj 69 419 pack 0 0, f 22;
#X obj 69 14 inlet;
#X obj 69 478 outlet;
#X obj 118 14 inlet;
#X obj 206 14 inlet;
#X obj 118 94 * 1, f 5;
#X msg 118 131 tempo \$1 permin;
#X obj 69 173 metro 1 120 permin;
#X obj 206 44 t b f;
#X obj 129 359 t b f;
#X obj 69 392 int;
#X connect 0 0 1 0;
#X connect 0 0 6 0;
#X connect 0 0 3 0;
#X connect 1 0 0 1;
#X connect 2 0 0 0;
#X connect 3 0 4 0;
#X connect 4 0 17 0;
#X connect 5 0 18 1;
#X connect 6 0 5 0;
#X connect 7 0 2 0;
#X connect 8 0 10 0;
#X connect 9 0 7 0;
#X connect 9 0 15 0;
#X connect 11 0 13 0;
#X connect 12 0 16 0;
#X connect 13 0 14 0;
#X connect 14 0 15 0;
#X connect 15 0 0 0;
#X connect 16 0 13 0;
#X connect 16 1 13 1;
#X connect 16 1 3 1;
#X connect 16 1 6 1;
#X connect 17 0 18 0;
#X connect 17 1 8 1;
#X connect 18 0 8 0;
#X restore 181 410 pd clock;
#X f 22;
#X obj 236 334 route tempo;
#X obj 41 24 declare -lib aoo;
#X floatatom 41 87 5 0 0 0 - - - 0;
#N canvas 518 151 597 371 events 0;
#X obj 37 37 inlet;
#X obj 37 62 print aoo_server;
#X text 190 102 a new client connected to the server;
#X msg 37 103 client_add <id> ...;
#X text 190 123 <id> is the client ID as a hex string \, e.g. "0xA7F3";
#X msg 37 163 client_remove <id>;
#X text 187 163 a client disconnected from the server;
#X text 199 202 a new group has been created on the server;
#X msg 37 243 group_remove <name>;
#X text 188 242 a group has been removed from the server;
#X text 294 284 a user has joined a group;
#X msg 37 203 group_add <name> ...;
#X msg 37 283 group_join <group> <user> <id> ...;
#X text 277 323 a user has left a group;
#X msg 37 323 group_leave <group> <user> <id>;
#X connect 0 0 1 0;
#X restore 143 87 pd events;
#X obj 41 62 aoo_server 8000;
#X obj 127 234 aoo_client 9010, f 16;
#X msg 252 94 connect localhost 8000;
#X msg 426 93 group_join ensemble _ clock _;
#X obj 181 438 oscformat clock pulse;
#X floatatom 332 379 5 1 48 2 PPQN \$0-toPPQN - 12;
#X obj 181 378 route playing bpm;
#N canvas 134 168 450 300 init 0;
#X obj 128 31 loadbang;
#X obj 128 99 s \$0-toPPQN;
#X msg 128 56 24;
#X connect 0 0 2 0;
#X connect 2 0 1 0;
#X restore 173 24 pd init;
#X obj 236 267 route msg;
#N canvas 182 98 1024 481 parse_osc 0;
#X obj 78 132 oscparse;
#X obj 78 81 list trim;
#X obj 78 108 route osc;
#X obj 78 158 list trim;
#X obj 38 13 inlet;
#X obj 78 206 outlet;
#X obj 38 53 list split 3;
#X connect 0 0 3 0;
#X connect 1 0 2 0;
#X connect 2 0 0 0;
#X connect 3 0 5 0;
#X connect 4 0 6 0;
#X connect 6 1 1 0;
#X restore 236 300 pd parse_osc;
#X obj 200 299 bng 20 250 50 0 empty empty empty 0 -10 0 12 #fcfcfc #000000 #000000;
#X text 31 108 clients connected;
#X msg 262 122 disconnect;
#X obj 181 471 list prepend send_group ensemble osc;
#X obj 181 500 list trim;
#X msg 35 194 reliable 1;
#X obj 35 159 loadbang;
#X obj 317 20 loadbang;
#X obj 317 46 t b b;
#X obj 426 65 del 200;
#X text 397 20 connect to server and join group automatically, f 24;
#X obj 355 439 oscformat clock ppqn;
#X connect 0 0 9 0;
#X connect 1 0 11 0;
#X connect 5 0 3 0;
#X connect 5 1 4 0;
#X connect 6 1 13 0;
#X connect 7 0 6 0;
#X connect 8 0 6 0;
#X connect 9 0 18 0;
#X connect 10 0 0 2;
#X connect 10 0 26 0;
#X connect 11 0 0 0;
#X connect 11 1 0 1;
#X connect 13 0 14 0;
#X connect 13 0 15 0;
#X connect 14 0 1 0;
#X connect 17 0 6 0;
#X connect 18 0 19 0;
#X connect 19 0 6 0;
#X connect 20 0 6 0;
#X connect 21 0 20 0;
#X connect 22 0 23 0;
#X connect 23 0 24 0;
#X connect 23 1 7 0;
#X connect 24 0 8 0;
#X connect 26 0 18 0;
