#N canvas 136 97 1024 481 12;
#X declare -lib aoo;
#X declare -lib aoo;
#X obj 30 183 aoo_client 9011;
#X obj 132 229 route msg;
#N canvas 574 95 537 481 parse_clock 0;
#X obj 78 132 oscparse;
#X obj 78 81 list trim;
#X obj 78 108 route osc;
#X obj 78 158 list trim;
#X obj 78 187 route clock;
#X obj 78 215 route pulse;
#X obj 38 13 inlet;
#X obj 78 283 outlet;
#X obj 145 283 outlet;
#X obj 78 245 unpack 0 0;
#X obj 38 53 list split 3;
#X connect 0 0 3 0;
#X connect 1 0 2 0;
#X connect 2 0 0 0;
#X connect 3 0 4 0;
#X connect 4 0 5 0;
#X connect 5 0 9 0;
#X connect 6 0 10 0;
#X connect 9 0 7 0;
#X connect 9 1 8 0;
#X connect 10 1 1 0;
#X restore 132 264 pd parse_clock;
#X obj 532 39 declare -lib aoo;
#N canvas 135 169 450 308 test_clock 0;
#X obj 110 112 vline~;
#X obj 39 111 osc~ 440;
#X obj 39 177 *~ 0.2;
#X obj 89 289 dac~;
#X obj 41 144 *~;
#X floatatom 108 144 5 0 0 0 - - - 0;
#X msg 110 81 1 1 \, 0 20 20;
#X obj 110 16 inlet;
#X obj 221 185 inlet;
#X obj 88 239 *~, f 6;
#X obj 109 49 route 0;
#X connect 0 0 4 1;
#X connect 1 0 4 0;
#X connect 2 0 9 0;
#X connect 4 0 2 0;
#X connect 5 0 2 1;
#X connect 6 0 0 0;
#X connect 7 0 10 0;
#X connect 8 0 9 1;
#X connect 9 0 3 0;
#X connect 9 0 3 1;
#X connect 10 0 6 0;
#X restore 259 288 pd test_clock;
#X obj 347 253 tgl 20 0 empty empty empty 0 -10 0 12 #fcfcfc #000000 #000000 0 1;
#X obj 17 19 cnv 20 500 140 empty empty Connect 20 12 0 12 #e0e0e0 #404040 0;
#X msg 167 117 disconnect;
#X msg 30 117 connect \$1 8000;
#X symbolatom 30 61 10 0 0 2 Address \$0-toAddress - 0;
#X obj 30 87 t s b;
#X symbolatom 270 62 10 0 0 2 Username \$0-toUsername - 0;
#X msg 270 117 group_join ensemble _ \$1 _;
#N canvas 390 84 450 300 init 0;
#X msg 24 99 120;
#X obj 24 11 loadbang;
#X obj 238 9 declare -lib aoo;
#X obj 24 129 s \$0-toBpm;
#X obj 116 130 s \$0-toAddress;
#X msg 116 100 symbol localhost;
#X obj 252 134 s \$0-toUsername;
#X obj 252 75 random 10000;
#X obj 252 106 makefilename %d;
#X obj 252 48 del 200;
#X connect 0 0 3 0;
#X connect 1 0 0 0;
#X connect 1 0 5 0;
#X connect 1 0 9 0;
#X connect 5 0 4 0;
#X connect 7 0 8 0;
#X connect 8 0 6 0;
#X connect 9 0 7 0;
#X restore 532 9 pd init;
#X obj 270 87 makefilename player-%s;
#X connect 0 1 1 0;
#X connect 1 0 2 0;
#X connect 2 1 4 0;
#X connect 5 0 4 1;
#X connect 7 0 0 0;
#X connect 8 0 0 0;
#X connect 9 0 10 0;
#X connect 10 0 8 0;
#X connect 10 1 7 0;
#X connect 11 0 14 0;
#X connect 12 0 0 0;
#X connect 14 0 12 0;
