#N canvas 5 49 673 545 12;
#X declare -lib aoo;
#N canvas 245 78 483 503 clock 1;
#X obj 101 142 metro 1000;
#X obj 168 112 expr 60000/($f1*$f2);
#X obj 101 187 int 0;
#X obj 152 188 + 1;
#X msg 44 142 0;
#X obj 191 261 %;
#X floatatom 191 296 5 0 0 0 - - - 12;
#X floatatom 101 296 5 0 0 0 - - - 12;
#X obj 101 261 div;
#X obj 44 106 route 1;
#X obj 101 328 pack 0 0, f 13;
#X obj 101 33 inlet;
#X obj 101 448 outlet;
#X obj 168 39 inlet;
#X obj 288 24 inlet;
#X obj 288 81 t b f f f, f 18;
#X obj 168 75 clip 1 60000;
#X obj 288 50 clip 1 128;
#X connect 0 0 2 0;
#X connect 1 0 0 1;
#X connect 2 0 3 0;
#X connect 2 0 8 0;
#X connect 2 0 5 0;
#X connect 3 0 2 1;
#X connect 4 0 2 0;
#X connect 5 0 6 0;
#X connect 6 0 10 1;
#X connect 7 0 10 0;
#X connect 8 0 7 0;
#X connect 9 0 4 0;
#X connect 10 0 12 0;
#X connect 11 0 0 0;
#X connect 11 0 9 0;
#X connect 13 0 16 0;
#X connect 14 0 17 0;
#X connect 15 0 1 0;
#X connect 15 1 1 1;
#X connect 15 2 8 1;
#X connect 15 3 5 1;
#X connect 16 0 1 0;
#X connect 17 0 15 0;
#X restore 147 183 pd clock;
#X f 16;
#X obj 147 19 netreceive -u -b 55555;
#X obj 147 46 oscparse;
#X obj 147 111 route tempo;
#X obj 373 17 declare -lib aoo;
#X floatatom 373 80 5 0 0 0 - - - 0;
#N canvas 496 503 597 371 events 0;
#X obj 37 37 inlet;
#X obj 37 62 print aoo_server;
#X text 190 102 a new client connected to the server;
#X msg 37 103 client_add <id> ...;
#X text 190 123 <id> is the client ID as a hex string \, e.g. "0xA7F3";
#X msg 37 163 client_remove <id>;
#X text 187 163 a client disconnected from the server;
#X text 199 202 a new group has been created on the server;
#X msg 37 243 group_remove <name>;
#X text 188 242 a group has been removed from the server;
#X text 294 284 a user has joined a group;
#X msg 37 203 group_add <name> ...;
#X msg 37 283 group_join <group> <user> <id> ...;
#X text 277 323 a user has left a group;
#X msg 37 323 group_leave <group> <user> <id>;
#X connect 0 0 1 0;
#X restore 475 80 pd events;
#X obj 373 55 aoo_server 8000;
#X obj 147 381 aoo_send~ 1 9010 1;
#X obj 147 252 list prepend osc;
#X obj 147 283 list prepend 0;
#X obj 370 223 aoo_client 9010, f 16;
#X msg 370 153 connect localhost 8000;
#X msg 431 191 group_join ensemble _ clock _;
#X msg 52 333 start;
#X msg 107 333 stop;
#X obj 147 77 list trim;
#X obj 147 151 route playing bpm ppqn, f 23;
#X obj 147 214 oscformat clock pulse;
#X obj 52 284 route 1 0;
#X connect 0 0 18 0;
#X connect 1 0 2 0;
#X connect 2 0 16 0;
#X connect 3 0 17 0;
#X connect 7 0 5 0;
#X connect 7 1 6 0;
#X connect 9 0 10 0;
#X connect 10 0 8 0;
#X connect 12 0 11 0;
#X connect 13 0 11 0;
#X connect 14 0 8 0;
#X connect 15 0 8 0;
#X connect 16 0 3 0;
#X connect 17 0 19 0;
#X connect 17 0 0 0;
#X connect 17 1 0 1;
#X connect 17 2 0 2;
#X connect 18 0 9 0;
#X connect 19 0 14 0;
#X connect 19 1 15 0;
