#N canvas -29 54 777 546 12;
#X declare -lib aoo;
#X obj 41 51 cnv 15 181 173 empty empty Tempo 20 12 0 14 #15c982 #5a5a5a 0;
#X obj 126 95 vsl 37 84 1 666 0 0 empty toBpm BPM 0 -9 0 12 #e3dfd9 #5a5a5a #000000 0 1;
#X floatatom 126 188 5 0 0 0 - - \$0-bpm 12;
#X obj 48 93 tgl 25 0 \$0-playing empty Start 2 -7 0 10 #e3dfd9 #5a5a5a #5a5a5a 0 1;
#N canvas 534 163 450 300 init 0;
#X obj 62 90 s toBpm;
#X msg 63 57 120;
#X obj 71 11 loadbang;
#X obj 167 22 declare -lib aoo;
#X connect 1 0 0 0;
#X connect 2 0 1 0;
#X restore 48 9 pd init;
#X obj 287 391 oscformat tempo bpm;
#X obj 239 52 cnv 15 347 204 empty empty Scale 20 12 0 14 #c98461 #5a5a5a 0;
#X listbox 246 222 26 0 12 2 Degrees \$0-toDegrees \$0-degrees 16;
#X floatatom 247 172 5 0 12 2 Root - \$0-root 16;
#X msg 354 66 ionian, f 7;
#X msg 353 92 dorian, f 7;
#X msg 353 118 phrygian, f 9;
#X msg 353 144 lydian, f 7;
#X msg 353 170 mixolydian;
#X msg 455 64 aeolian;
#X msg 454 90 locrian;
#X msg 454 116 harm_minor, f 12;
#X msg 454 142 harmonics, f 12;
#X msg 454 168 quartertone;
#N canvas 0 32 1366 665 scalePresets 0;
#X obj 120 106 route ionian dorian phrygian lydian mixolydian aeolian locrian harm_minor harmonics quartertone, f 132;
#X msg 120 159 0 2 4 5 7 9 11;
#X msg 229 159 0 2 3 5 7 9 10;
#X msg 339 159 0 1 3 5 7 8 10;
#X msg 1113 162 0 0.5 1 1.5 2 2.5 3 3.5 4 4.5 5 5.5 6 6.5 7 7.5 8 8.5 9 9.5 10 10.5 11 11.5, f 18;
#X msg 448 160 0 2 4 6 7 9 11;
#X msg 557 160 0 2 4 5 7 9 10;
#X msg 667 160 0 2 3 5 7 8 10;
#X msg 780 160 0 1 3 5 6 8 10;
#X msg 889 160 0 2 3 5 7 8 11;
#X msg 999 160 0 3 4 5 7 9;
#X obj 120 66 r \$0-scalePreset;
#X obj 120 339 s \$0-toDegrees;
#X connect 0 0 1 0;
#X connect 0 1 2 0;
#X connect 0 2 3 0;
#X connect 0 3 5 0;
#X connect 0 4 6 0;
#X connect 0 5 7 0;
#X connect 0 6 8 0;
#X connect 0 7 9 0;
#X connect 0 8 10 0;
#X connect 0 9 4 0;
#X connect 1 0 12 0;
#X connect 2 0 12 0;
#X connect 3 0 12 0;
#X connect 4 0 12 0;
#X connect 5 0 12 0;
#X connect 6 0 12 0;
#X connect 7 0 12 0;
#X connect 8 0 12 0;
#X connect 9 0 12 0;
#X connect 10 0 12 0;
#X connect 11 0 0 0;
#X restore 149 9 pd scalePresets;
#X obj 588 392 oscformat scale degrees;
#X obj 433 392 oscformat scale root;
#X obj 354 9 loadbang;
#X obj 111 391 oscformat tempo playing;
#X msg 69 273 connect localhost 8000;
#X obj 111 440 list prepend send_group ensemble osc;
#X obj 111 466 list trim;
#X msg 161 299 group_join ensemble _ conductor1 _;
#X obj 57 510 aoo_client 9020;
#X obj 111 367 r \$0-playing;
#X obj 287 367 r \$0-bpm;
#X obj 433 367 r \$0-root;
#X obj 588 367 r \$0-degrees;
#X obj 354 196 s \$0-scalePreset;
#X msg 72 299 disconnect;
#X connect 1 0 2 0;
#X connect 5 0 25 0;
#X connect 9 0 33 0;
#X connect 10 0 33 0;
#X connect 11 0 33 0;
#X connect 12 0 33 0;
#X connect 13 0 33 0;
#X connect 14 0 33 0;
#X connect 15 0 33 0;
#X connect 16 0 33 0;
#X connect 17 0 33 0;
#X connect 18 0 33 0;
#X connect 20 0 25 0;
#X connect 21 0 25 0;
#X connect 22 0 9 0;
#X connect 23 0 25 0;
#X connect 24 0 28 0;
#X connect 25 0 26 0;
#X connect 26 0 28 0;
#X connect 27 0 28 0;
#X connect 29 0 23 0;
#X connect 30 0 5 0;
#X connect 31 0 21 0;
#X connect 32 0 20 0;
#X connect 34 0 28 0;
