#N canvas 693 83 632 482 12;
#X obj 64 484 netsend -u -b;
#X msg 41 387 disconnect;
#X obj 41 51 cnv 15 181 173 empty empty Tempo 20 12 0 14 #15c982 #5a5a5a 0;
#X obj 126 95 vsl 37 84 1 666 0 0 empty toBpm BPM 0 -9 0 12 #e3dfd9 #5a5a5a #000000 0 1;
#X floatatom 126 188 5 0 0 0 - - bpm 12;
#X floatatom 169 93 5 1 48 2 PPQN toPpqn ppqn 12;
#X obj 48 94 tgl 25 0 playing empty Start 2 -7 0 10 #e3dfd9 #5a5a5a #5a5a5a 0 1;
#N canvas 128 128 450 300 init 0;
#X obj 62 90 s toBpm;
#X obj 180 91 s toPpqn;
#X msg 63 57 120;
#X obj 71 11 loadbang;
#X msg 178 53 24;
#X connect 2 0 0 0;
#X connect 3 0 2 0;
#X connect 3 0 4 0;
#X connect 4 0 1 0;
#X restore 48 9 pd init;
#X obj 41 327 loadbang;
#X obj 287 443 oscformat tempo bpm;
#X obj 287 419 r bpm;
#X obj 439 419 r ppqn;
#X obj 439 443 oscformat tempo ppqn;
#X obj 239 52 cnv 15 347 204 empty empty Scale 20 12 0 14 #c98461 #5a5a5a 0;
#X listbox 246 222 26 0 12 2 Degrees toDegrees degrees 16;
#X obj 752 418 r degrees;
#X floatatom 247 172 5 0 12 2 Root - root 16;
#X msg 354 66 ionian, f 7;
#X msg 353 92 dorian, f 7;
#X msg 353 118 phrygian, f 9;
#X msg 353 144 lydian, f 7;
#X msg 353 170 mixolydian;
#X msg 455 64 aeolian;
#X msg 454 90 locrian;
#X msg 454 116 harm_minor, f 12;
#X msg 454 142 harmonics, f 12;
#X msg 454 168 quartertone;
#X obj 354 196 s scalePreset;
#N canvas 160 160 1920 966 scalePresets 0;
#X obj 120 106 route ionian dorian phrygian lydian mixolydian aeolian locrian harm_minor harmonics quartertone, f 132;
#X obj 120 66 r scalePreset;
#X msg 120 159 0 2 4 5 7 9 11;
#X msg 229 159 0 2 3 5 7 9 10;
#X msg 339 159 0 1 3 5 7 8 10;
#X msg 1113 162 0 0.5 1 1.5 2 2.5 3 3.5 4 4.5 5 5.5 6 6.5 7 7.5 8 8.5 9 9.5 10 10.5 11 11.5, f 18;
#X msg 448 160 0 2 4 6 7 9 11;
#X msg 557 160 0 2 4 5 7 9 10;
#X msg 667 160 0 2 3 5 7 8 10;
#X msg 780 160 0 1 3 5 6 8 10;
#X msg 889 160 0 2 3 5 7 8 11;
#X msg 999 160 0 3 4 5 7 9;
#X obj 120 339 s toDegrees;
#X connect 0 0 2 0;
#X connect 0 1 3 0;
#X connect 0 2 4 0;
#X connect 0 3 6 0;
#X connect 0 4 7 0;
#X connect 0 5 8 0;
#X connect 0 6 9 0;
#X connect 0 7 10 0;
#X connect 0 8 11 0;
#X connect 0 9 5 0;
#X connect 1 0 0 0;
#X connect 2 0 12 0;
#X connect 3 0 12 0;
#X connect 4 0 12 0;
#X connect 5 0 12 0;
#X connect 6 0 12 0;
#X connect 7 0 12 0;
#X connect 8 0 12 0;
#X connect 9 0 12 0;
#X connect 10 0 12 0;
#X connect 11 0 12 0;
#X restore 149 9 pd scalePresets;
#X obj 752 443 oscformat scale degrees;
#X obj 597 419 r root;
#X obj 597 444 oscformat scale root;
#X obj 354 9 loadbang;
#X msg 41 361 connect 255.255.255.255 55555;
#X obj 111 419 r playing;
#X obj 111 443 oscformat tempo playing;
#X floatatom 70 433 5 0 0 0 - - - 0;
#X connect 1 0 0 0;
#X connect 3 0 4 0;
#X connect 8 0 33 0;
#X connect 9 0 0 0;
#X connect 10 0 9 0;
#X connect 11 0 12 0;
#X connect 12 0 0 0;
#X connect 15 0 29 0;
#X connect 17 0 27 0;
#X connect 18 0 27 0;
#X connect 19 0 27 0;
#X connect 20 0 27 0;
#X connect 21 0 27 0;
#X connect 22 0 27 0;
#X connect 23 0 27 0;
#X connect 24 0 27 0;
#X connect 25 0 27 0;
#X connect 26 0 27 0;
#X connect 29 0 0 0;
#X connect 30 0 31 0;
#X connect 31 0 0 0;
#X connect 32 0 17 0;
#X connect 33 0 0 0;
#X connect 34 0 35 0;
#X connect 34 0 36 0;
#X connect 35 0 0 0;
