#N canvas -14 20 1366 665 12;
#X msg 26 36 connect localhost 8000;
#X msg 67 74 group_join ensemble _ player1 _;
#X obj 26 112 aoo_client 9011;
#X obj 27 212 aoo_receive~ 1 9011 1;
#X msg 27 174 invite ensemble clock 1;
#X obj 171 243 route msg;
#N canvas -14 20 1366 665 parse_clock 0;
#X obj 78 132 oscparse;
#X obj 78 81 list trim;
#X obj 38 53 list split 4;
#X obj 78 108 route osc;
#X obj 78 158 list trim;
#X obj 78 187 route clock;
#X obj 78 215 route pulse;
#X obj 78 245 unpack i i;
#X obj 38 13 inlet;
#X obj 78 283 outlet;
#X obj 145 283 outlet;
#X connect 0 0 4 0;
#X connect 1 0 3 0;
#X connect 2 1 1 0;
#X connect 3 0 0 0;
#X connect 4 0 5 0;
#X connect 5 0 6 0;
#X connect 6 0 7 0;
#X connect 7 0 9 0;
#X connect 7 1 10 0;
#X connect 8 0 2 0;
#X restore 171 278 pd parse_clock;
#X obj 266 376 vline~;
#X obj 266 314 route 0;
#X obj 195 375 osc~ 440;
#X obj 195 441 *~ 0.2;
#X obj 193 494 dac~;
#X obj 404 358 bng 20 250 50 0 empty empty empty 0 -10 0 12 #fcfcfc #000000 #000000;
#X obj 197 408 *~;
#X msg 266 345 1 1 \, 0 100 100;
#X floatatom 264 408 5 0 0 0 - - - 0;
#X connect 0 0 2 0;
#X connect 1 0 2 0;
#X connect 3 1 5 0;
#X connect 4 0 3 0;
#X connect 5 0 6 0;
#X connect 6 1 8 0;
#X connect 7 0 13 1;
#X connect 8 0 14 0;
#X connect 8 0 12 0;
#X connect 9 0 13 0;
#X connect 10 0 11 0;
#X connect 10 0 11 1;
#X connect 13 0 10 0;
#X connect 14 0 7 0;
#X connect 15 0 10 1;
