#N canvas 741 239 482 313 12;
#X declare -lib aoo;
#X msg 26 36 connect localhost 8000;
#X msg 67 74 group_join ensemble _ player1 _;
#X obj 26 112 aoo_client 9011;
#X obj 130 159 route msg;
#N canvas 574 95 537 481 parse_clock 0;
#X obj 78 132 oscparse;
#X obj 78 81 list trim;
#X obj 78 108 route osc;
#X obj 78 158 list trim;
#X obj 78 187 route clock;
#X obj 78 215 route pulse;
#X obj 38 13 inlet;
#X obj 78 283 outlet;
#X obj 145 283 outlet;
#X obj 78 245 unpack 0 0;
#X obj 38 53 list split 3;
#X connect 0 0 3 0;
#X connect 1 0 2 0;
#X connect 2 0 0 0;
#X connect 3 0 4 0;
#X connect 4 0 5 0;
#X connect 5 0 9 0;
#X connect 6 0 10 0;
#X connect 9 0 7 0;
#X connect 9 1 8 0;
#X connect 10 1 1 0;
#X restore 130 194 pd parse_clock;
#X obj 318 33 declare -lib aoo;
#N canvas 135 169 450 308 test_clock 0;
#X obj 110 112 vline~;
#X obj 39 111 osc~ 440;
#X obj 39 177 *~ 0.2;
#X obj 89 289 dac~;
#X obj 41 144 *~;
#X floatatom 108 144 5 0 0 0 - - - 0;
#X msg 110 81 1 1 \, 0 20 20;
#X obj 110 16 inlet;
#X obj 221 185 inlet;
#X obj 88 239 *~, f 6;
#X obj 109 49 route 0;
#X connect 0 0 4 1;
#X connect 1 0 4 0;
#X connect 2 0 9 0;
#X connect 4 0 2 0;
#X connect 5 0 2 1;
#X connect 6 0 0 0;
#X connect 7 0 10 0;
#X connect 8 0 9 1;
#X connect 9 0 3 0;
#X connect 9 0 3 1;
#X connect 10 0 6 0;
#X restore 256 220 pd test_clock;
#X obj 344 185 tgl 20 0 empty empty empty 0 -10 0 12 #fcfcfc #000000 #000000 0 1;
#X connect 0 0 2 0;
#X connect 1 0 2 0;
#X connect 2 1 3 0;
#X connect 3 0 4 0;
#X connect 4 1 6 0;
#X connect 7 0 6 1;
