#N canvas 622 106 450 489 10;
#X obj 59 214 list fromsymbol;
#N canvas 594 338 204 253 list-drip 0;
#X obj 42 39 inlet;
#X obj 42 154 list store;
#X obj 42 85 until;
#X obj 42 108 f;
#X obj 72 108 + 1;
#X msg 42 131 get \$1 1;
#X obj 85 86 0;
#X obj 42 177 outlet;
#X obj 109 177 outlet;
#X obj 42 62 t b b a;
#X connect 0 0 9 0;
#X connect 1 0 7 0;
#X connect 1 1 8 0;
#X connect 1 1 2 1;
#X connect 2 0 3 0;
#X connect 3 0 5 0;
#X connect 3 0 4 0;
#X connect 4 0 3 1;
#X connect 5 0 1 0;
#X connect 6 0 3 1;
#X connect 9 0 2 0;
#X connect 9 1 6 0;
#X connect 9 2 1 1;
#X restore 59 237 pd list-drip;
#X msg 59 306 append \$1;
#X obj 59 329 list store;
#X obj 128 283 t b b;
#X obj 59 352 fudiparse;
#X msg 59 283 32;
#X obj 59 191 symbol;
#X obj 59 150 list tosymbol;
#X obj 59 127 fudiformat -u;
#X obj 59 378 list;
#X obj 59 68 inlet;
#X obj 59 426 outlet;
#X obj 59 260 route, f 18;
#X obj 208 163 loadbang;
#X obj 208 210 f \$1;
#X connect 0 0 1 0;
#X connect 1 0 13 0;
#X connect 1 1 4 0;
#X connect 2 0 3 0;
#X connect 3 0 5 0;
#X connect 4 0 3 1;
#X connect 4 1 3 0;
#X connect 5 0 10 0;
#X connect 6 0 2 0;
#X connect 7 0 0 0;
#X connect 8 0 7 0;
#X connect 9 0 8 0;
#X connect 10 0 12 0;
#X connect 11 0 9 0;
#X connect 13 0 6 0;
#X connect 13 1 2 0;
#X connect 14 0 15 0;
#X connect 15 0 13 1;
