#N canvas 454 0 228 683 12;
#X obj 9 136 cnv 20 250 120 empty empty Network\ config 20 12 0 12 #ff8300 #404040 0;
#X symbolatom 22 183 20 0 0 2 Address \$0-sendaddr mcm-address 0;
#X symbolatom 23 227 20 0 0 2 Username \$0-senduser mcm-username 0;
#X obj 194 191 bng 40 250 50 0 \$0-sendconfig empty resend 0 -10 0 12 #fcfcfc #000000 #000000;
#N canvas 2404 825 472 219 send 0;
#X obj 18 18 r \$0-sendconfig;
#X obj 18 74 s \$0-sendaddr;
#X obj 119 74 s \$0-senduser;
#X obj 119 52 del 200;
#X connect 0 0 1 0;
#X connect 0 0 3 0;
#X connect 3 0 2 0;
#X restore 12 259 pd send;
#X obj 9 12 cnv 20 250 120 empty empty Open\ Patches 20 12 0 12 #9c7098 #404040 0;
#X obj 23 52 conductor;
#X obj 117 52 player;
#N canvas 820 0 228 683 init 1;
#X msg 116 100 symbol localhost;
#X obj 252 71 random 10000;
#X obj 252 106 makefilename %d;
#X obj 252 45 del 200;
#X obj 121 13 loadbang;
#X obj 116 130 s \$0-sendaddr;
#X obj 252 134 s \$0-senduser;
#X connect 0 0 5 0;
#X connect 1 0 2 0;
#X connect 2 0 6 0;
#X connect 3 0 1 0;
#X connect 4 0 0 0;
#X connect 4 0 3 0;
#X restore 92 261 pd init;
