#N canvas 408 305 472 477 12;
#X obj 9 136 cnv 20 250 220 empty empty Network\ config 20 12 0 12 #ff8300 #404040 0;
#X symbolatom 22 183 20 0 0 2 Address \$0-sendaddr mcm-address 0;
#X symbolatom 23 227 20 0 0 2 Username \$0-senduser mcm-username 0;
#X obj 194 191 bng 40 250 50 0 \$0-sendconfig empty resend 0 -10 0 12 #fcfcfc #000000 #000000;
#N canvas 6 52 470 992 send 0;
#X obj 18 18 r \$0-sendconfig;
#X obj 152 73 s \$0-sendaddr;
#X obj 252 73 s \$0-senduser;
#X obj 70 97 s \$0-sendplayport;
#X obj 44 122 s \$0-sendcondport;
#X obj 152 50 del 100;
#X obj 252 51 del 300;
#X connect 0 0 3 0;
#X connect 0 0 4 0;
#X connect 0 0 5 0;
#X connect 0 0 6 0;
#X connect 5 0 1 0;
#X connect 6 0 2 0;
#X restore 12 363 pd send;
#X obj 9 12 cnv 20 250 120 empty empty Open\ Patches 20 12 0 12 #9c7098 #404040 0;
#X obj 23 52 conductor;
#X obj 117 52 player;
#N canvas 6 52 950 477 init 0;
#X msg 163 100 symbol localhost;
#X obj 299 71 random 10000;
#X obj 299 106 makefilename %d;
#X obj 121 13 loadbang;
#X obj 163 130 s \$0-sendaddr;
#X obj 299 134 s \$0-senduser;
#X obj 163 58 del 100;
#X obj 299 45 del 300;
#X obj 40 175 s \$0-sendplayport;
#X obj 3 204 s \$0-sendcondport;
#X msg 1 51 9020;
#X msg 50 81 9011;
#X obj 41 131 makefilename %d;
#X obj 2 110 makefilename %d;
#X connect 0 0 4 0;
#X connect 1 0 2 0;
#X connect 2 0 5 0;
#X connect 3 0 6 0;
#X connect 3 0 7 0;
#X connect 3 0 10 0;
#X connect 3 0 11 0;
#X connect 6 0 0 0;
#X connect 7 0 1 0;
#X connect 10 0 13 0;
#X connect 11 0 12 0;
#X connect 12 0 8 0;
#X connect 13 0 9 0;
#X restore 92 364 pd init;
#X symbolatom 24 274 20 0 0 2 Conductor\ port \$0-sendcondport mcm-conductor-port 0;
#X symbolatom 25 318 20 0 0 2 Player\ port \$0-sendplayport mcm-player-port 0;
