#N canvas 963 209 706 599 12;
#X declare -path libs -lib aoo;
#X obj 41 51 cnv 15 181 173 empty empty Tempo 20 12 0 14 #66b066 #5a5a5a 0;
#X obj 126 95 vsl 37 84 1 666 0 0 empty \$0-toBpm BPM 0 -9 0 12 #e3dfd9 #5a5a5a #000000 0 1;
#X floatatom 126 188 5 0 0 0 - - \$0-bpm 12;
#X obj 48 93 tgl 25 0 \$0-playing empty Start 2 -7 0 10 #e3dfd9 #5a5a5a #5a5a5a 0 1;
#N canvas 0 0 455 715 init 0;
#X msg 24 99 120;
#X obj 24 11 loadbang;
#X obj 24 129 s \$0-toBpm;
#X obj 238 9 declare -path libs -lib aoo;
#X connect 0 0 2 0;
#X connect 1 0 0 0;
#X restore 48 9 pd init;
#X obj 239 52 cnv 15 347 204 empty empty Scale 20 12 0 14 #c98e76 #5a5a5a 0;
#X listbox 246 222 32 0 12 2 Degrees \$0-toDegrees \$0-degrees 16;
#X floatatom 247 172 5 -12 12 2 Root - \$0-root 16;
#X msg 354 66 ionian, f 7;
#X msg 353 92 dorian, f 7;
#X msg 353 118 phrygian, f 9;
#X msg 353 144 lydian, f 7;
#X msg 353 170 mixolydian;
#X msg 455 64 aeolian;
#X msg 454 90 locrian;
#X msg 454 116 harm_minor, f 12;
#X msg 454 142 harmonics, f 12;
#X msg 454 168 quartertone;
#X obj 354 9 loadbang;
#X obj 50 484 aoo_client 9020;
#X obj 354 196 s \$0-scalePreset;
#N canvas 6 309 470 220 osc_send 0;
#X obj 200 159 oscformat tempo bpm;
#X obj 501 160 oscformat scale degrees;
#X obj 346 160 oscformat scale root;
#X obj 24 159 oscformat tempo playing;
#X obj 24 208 list prepend send_group ensemble osc;
#X obj 24 234 list trim;
#X obj 24 27 r \$0-playing;
#X obj 200 70 r \$0-bpm;
#X obj 346 70 r \$0-root;
#X obj 501 70 r \$0-degrees;
#X obj 24 272 outlet;
#X obj 200 131 float;
#X obj 346 130 float;
#X obj 501 130 list store;
#X connect 0 0 4 0;
#X connect 1 0 4 0;
#X connect 2 0 4 0;
#X connect 3 0 4 0;
#X connect 4 0 5 0;
#X connect 5 0 10 0;
#X connect 6 0 3 0;
#X connect 7 0 11 1;
#X connect 7 0 11 0;
#X connect 8 0 12 1;
#X connect 8 0 12 0;
#X connect 9 0 13 1;
#X connect 9 0 13 0;
#X connect 11 0 0 0;
#X connect 12 0 2 0;
#X connect 13 0 1 0;
#X restore 160 452 pd osc_send;
#X obj 37 282 cnv 20 500 140 empty empty Connect 20 12 0 12 #e0e0e0 #404040 0;
#X msg 187 380 disconnect;
#X symbolatom 50 324 10 0 0 2 Address \$0-toAddress - 0;
#X obj 50 350 t s b;
#X obj 290 350 makefilename conductor-%s;
#X symbolatom 290 325 10 0 0 2 Username \$0-toUsername - 0;
#X msg 290 380 group_join ensemble _ \$1 _;
#N canvas 0 32 455 715 scale_presets 0;
#X obj 120 106 route ionian dorian phrygian lydian mixolydian aeolian locrian harm_minor harmonics quartertone, f 132;
#X msg 120 159 0 2 4 5 7 9 11;
#X msg 229 159 0 2 3 5 7 9 10;
#X msg 339 159 0 1 3 5 7 8 10;
#X msg 1113 162 0 0.5 1 1.5 2 2.5 3 3.5 4 4.5 5 5.5 6 6.5 7 7.5 8 8.5 9 9.5 10 10.5 11 11.5, f 18;
#X msg 448 160 0 2 4 6 7 9 11;
#X msg 557 160 0 2 4 5 7 9 10;
#X msg 667 160 0 2 3 5 7 8 10;
#X msg 780 160 0 1 3 5 6 8 10;
#X msg 889 160 0 2 3 5 7 8 11;
#X msg 999 160 0 3 4 5 7 9;
#X obj 120 66 r \$0-scalePreset;
#X obj 120 339 s \$0-toDegrees;
#X connect 0 0 1 0;
#X connect 0 1 2 0;
#X connect 0 2 3 0;
#X connect 0 3 5 0;
#X connect 0 4 6 0;
#X connect 0 5 7 0;
#X connect 0 6 8 0;
#X connect 0 7 9 0;
#X connect 0 8 10 0;
#X connect 0 9 4 0;
#X connect 1 0 12 0;
#X connect 2 0 12 0;
#X connect 3 0 12 0;
#X connect 4 0 12 0;
#X connect 5 0 12 0;
#X connect 6 0 12 0;
#X connect 7 0 12 0;
#X connect 8 0 12 0;
#X connect 9 0 12 0;
#X connect 10 0 12 0;
#X connect 11 0 0 0;
#X restore 149 9 pd scale_presets;
#N canvas 228 0 370 162 receive_params 0;
#X obj 146 25 r mcm-username;
#X obj 33 25 r mcm-address;
#X obj 33 73 s \$0-toAddress;
#X obj 146 72 s \$0-toUsername;
#X connect 0 0 3 0;
#X connect 1 0 2 0;
#X restore 449 10 pd receive_params;
#X msg 50 380 connect \$1 8080;
#X msg 263 476 port \$1;
#X obj 263 425 r mcm-conductor-port;
#X obj 263 450 f;
#X connect 1 0 2 0;
#X connect 8 0 20 0;
#X connect 9 0 20 0;
#X connect 10 0 20 0;
#X connect 11 0 20 0;
#X connect 12 0 20 0;
#X connect 13 0 20 0;
#X connect 14 0 20 0;
#X connect 15 0 20 0;
#X connect 16 0 20 0;
#X connect 17 0 20 0;
#X connect 18 0 8 0;
#X connect 21 0 19 0;
#X connect 23 0 19 0;
#X connect 24 0 25 0;
#X connect 25 0 31 0;
#X connect 25 1 23 0;
#X connect 26 0 28 0;
#X connect 27 0 26 0;
#X connect 28 0 19 0;
#X connect 31 0 19 0;
#X connect 32 0 19 0;
#X connect 33 0 34 0;
#X connect 34 0 32 0;
