#N canvas -55 310 604 645 12;
#X declare -path libs -lib aoo;
#X obj 20 563 aoo_client 9011;
#X obj 19 592 route msg, f 14;
#N canvas 1926 347 273 635 parse_clock 0;
#X obj 78 132 oscparse;
#X obj 78 81 list trim;
#X obj 78 108 route osc;
#X obj 78 158 list trim;
#X obj 78 187 route clock;
#X obj 78 215 route pulse;
#X obj 38 13 inlet;
#X obj 78 283 outlet;
#X obj 145 283 outlet;
#X obj 78 245 unpack 0 0;
#X obj 38 53 list split 3;
#X connect 0 0 3 0;
#X connect 1 0 2 0;
#X connect 2 0 0 0;
#X connect 3 0 4 0;
#X connect 4 0 5 0;
#X connect 5 0 9 0;
#X connect 6 0 10 0;
#X connect 9 0 7 0;
#X connect 9 1 8 0;
#X connect 10 1 1 0;
#X restore 19 622 pd parse_clock;
#X obj 7 399 cnv 20 500 140 empty empty Connect 20 12 0 12 #e0e0e0 #404040 0;
#X msg 157 497 disconnect;
#X symbolatom 20 441 10 0 0 2 Address \$0-toAddress - 0;
#X obj 20 467 t s b;
#X symbolatom 260 442 10 0 0 2 Username \$0-toUsername - 0;
#X msg 260 497 group_join ensemble _ \$1 _;
#N canvas 1005 156 528 683 init 0;
#X msg 26 99 120;
#X obj 24 11 loadbang;
#X obj 26 129 s \$0-toBpm;
#X obj 4 246 s \$0-toStretch;
#X obj 124 246 s \$0-toShift;
#X obj 447 77 s \$0-toPattern;
#X obj 231 245 s \$0-toOctave;
#X obj 4 190 unpack f f f;
#X obj 238 9 declare -path libs -lib aoo;
#X msg 4 162 1 0 5;
#X msg 447 45 list 0-3-5:1 1:2 x:4;
#X obj 455 151 loadbang;
#X msg 455 179 24;
#X obj 454 206 s \$0-ppqn;
#X obj 117 123 s \$0-bpm;
#X connect 0 0 2 0;
#X connect 0 0 14 0;
#X connect 1 0 0 0;
#X connect 1 0 9 0;
#X connect 1 0 10 0;
#X connect 7 0 3 0;
#X connect 7 1 4 0;
#X connect 7 2 6 0;
#X connect 9 0 7 0;
#X connect 10 0 5 0;
#X connect 11 0 12 0;
#X connect 12 0 13 0;
#X restore 502 -6 pd init;
#X obj 260 467 makefilename player-%s;
#N canvas 574 132 664 472 clock_event 0;
#X obj 88 29 inlet;
#X obj 150 29 inlet;
#X obj 209 29 inlet;
#X obj 268 29 inlet;
#X text 72 4 beat;
#X text 136 3 subdiv;
#X text 196 2 ppqn;
#X text 254 2 stretch;
#X obj 332 28 inlet;
#X text 324 2 shift;
#X obj 88 101 +, f 9;
#X obj 268 64 t b f;
#X obj 209 133 int;
#X obj 88 196 -;
#X obj 332 125 int;
#X obj 150 276 == 0;
#X obj 150 331 route 1;
#X obj 150 386 outlet;
#X obj 88 70 * 24;
#X obj 209 103 * 1;
#X obj 150 240 mod;
#X connect 0 0 18 0;
#X connect 1 0 10 1;
#X connect 2 0 18 1;
#X connect 2 0 19 0;
#X connect 3 0 11 0;
#X connect 8 0 14 0;
#X connect 10 0 13 0;
#X connect 11 0 19 0;
#X connect 11 1 19 1;
#X connect 12 0 20 1;
#X connect 13 0 20 0;
#X connect 14 0 13 1;
#X connect 15 0 16 0;
#X connect 16 0 17 0;
#X connect 18 0 10 0;
#X connect 19 0 12 0;
#X connect 20 0 15 0;
#X restore 19 688 pd clock_event;
#X f 55;
#N canvas 1926 347 273 635 parse_info 0;
#X obj 78 132 oscparse;
#X obj 78 81 list trim;
#X obj 78 108 route osc;
#X obj 78 158 list trim;
#X obj 38 13 inlet;
#X obj 38 53 list split 3;
#X obj 78 187 route clock;
#X obj 78 219 route ppqn;
#X obj 198 187 route tempo;
#X obj 198 220 route bpm;
#X obj 78 252 s \$0-ppqn;
#X obj 198 253 s \$0-bpm;
#X obj 291 253 s \$0-degrees;
#X obj 291 187 route scale;
#X obj 291 220 route degrees;
#X obj 399 219 route root;
#X obj 399 252 s \$0-root;
#X connect 0 0 3 0;
#X connect 1 0 2 0;
#X connect 2 0 0 0;
#X connect 3 0 6 0;
#X connect 3 0 8 0;
#X connect 3 0 13 0;
#X connect 4 0 5 0;
#X connect 5 1 1 0;
#X connect 6 0 7 0;
#X connect 7 0 10 0;
#X connect 8 0 9 0;
#X connect 9 0 11 0;
#X connect 13 0 14 0;
#X connect 13 0 15 0;
#X connect 14 0 12 0;
#X connect 15 0 16 0;
#X restore 128 622 pd parse_info;
#X f 14;
#N canvas 227 130 450 308 test_clock 0;
#X obj 110 112 vline~;
#X obj 39 111 osc~ 440;
#X obj 39 177 *~ 0.2;
#X obj 89 289 dac~;
#X obj 41 144 *~;
#X floatatom 108 144 5 0 0 0 - - - 0;
#X msg 110 81 1 1 \, 0 20 20;
#X obj 110 16 inlet;
#X obj 221 185 inlet;
#X obj 88 239 *~, f 6;
#X obj 109 49 route 0;
#X connect 0 0 4 1;
#X connect 1 0 4 0;
#X connect 2 0 9 0;
#X connect 4 0 2 0;
#X connect 5 0 2 1;
#X connect 6 0 0 0;
#X connect 7 0 10 0;
#X connect 8 0 9 1;
#X connect 9 0 3 0;
#X connect 9 0 3 1;
#X connect 10 0 6 0;
#X restore 499 102 pd test_clock;
#X obj 587 73 tgl 20 0 empty empty empty 0 -10 0 12 #fcfcfc #000000 #000000 0 1;
#X obj 28 657 s \$0-subdiv;
#X obj 499 73 r \$0-subdiv;
#X obj 210 658 r \$0-ppqn;
#X obj 321 -20 cnv 20 160 200 empty empty Rhythm\ Modulation 20 12 0 12 #31a36e #404040 0;
#X floatatom 336 147 5 0 0 0 - - \$0-stretch 0;
#X floatatom 432 147 5 0 0 0 - - \$0-shift 0;
#X obj 336 17 vsl 20 120 0.1 10 1 0 empty \$0-toStretch Stretch 0 -9 0 12 #fcfcfc #000000 #000000 0 1;
#X obj 432 17 vsl 20 120 -48 48 0 1 empty \$0-toShift Shift 0 -9 0 12 #fcfcfc #000000 #000000 5950 1;
#X obj 19 722 bng 20 250 50 0 empty empty empty 0 -10 0 12 #fcfcfc #000000 #000000;
#X listbox 19 788 20 0 0 0 - - - 0;
#N canvas 0 32 1366 665 next_note 0;
#X obj 123 118 r \$0-pattern;
#X obj 123 148 list;
#X obj 56 185 list store;
#X msg 56 149 get \$1;
#X floatatom 56 126 5 0 0 0 - - - 0;
#X listbox 56 210 12 0 0 0 - - - 0;
#X listbox 56 274 20 0 0 0 - - - 0;
#X obj 56 245 abs/splitsym 58;
#X obj 56 337 abs/splitsym 45;
#X obj 56 303 list split 1, f 32;
#X obj 370 260 f;
#X obj 419 260 + 1;
#X obj 374 311 mod 1;
#X obj 373 358 == 0;
#X obj 373 385 sel 1;
#X obj 300 81 f;
#X obj 349 82 + 1;
#X obj 349 108 mod 1;
#X obj 181 194 list length;
#X obj 459 86 inlet;
#X obj 56 386 outlet;
#X obj 177 405 outlet;
#X obj 177 338 list trim;
#X obj 177 364 float;
#X text 336 199 scusi per gli spaghetti;
#X obj 207 245 s \$0-event;
#X connect 0 0 1 0;
#X connect 1 0 2 1;
#X connect 1 0 18 0;
#X connect 2 0 5 0;
#X connect 3 0 2 0;
#X connect 4 0 3 0;
#X connect 5 0 7 0;
#X connect 5 0 25 0;
#X connect 6 0 9 0;
#X connect 7 0 6 0;
#X connect 8 0 20 0;
#X connect 9 0 8 0;
#X connect 9 1 22 0;
#X connect 10 0 11 0;
#X connect 11 0 12 0;
#X connect 12 0 10 1;
#X connect 12 0 13 0;
#X connect 13 0 14 0;
#X connect 14 0 15 0;
#X connect 15 0 16 0;
#X connect 15 0 4 0;
#X connect 16 0 17 0;
#X connect 17 0 15 1;
#X connect 18 0 17 1;
#X connect 19 0 10 0;
#X connect 22 0 23 0;
#X connect 23 0 21 0;
#X connect 23 0 12 1;
#X restore 19 756 pd next_note;
#X f 29;
#X obj 19 814 abs/list-drip;
#X obj 314 753 r \$0-bpm;
#X floatatom 107 930 5 0 0 0 - - - 0;
#X floatatom 216 931 5 0 0 0 - - - 0;
#X obj 219 788 expr $f1*$f2*(60000/$f3), f 14;
#N canvas -14 20 1366 665 degree2note 0;
#X obj 166 23 inlet;
#X obj 15 18 r \$0-octave;
#X obj 305 14 r \$0-degrees;
#X obj 305 41 list;
#X obj 163 174 list store;
#X msg 163 138 get \$1;
#X obj 195 69 list length;
#X obj 163 103 mod 7;
#X obj 18 172 +;
#X obj 82 139 t b f;
#X obj 82 110 div;
#X obj 76 81 t b f;
#X obj 18 212 * 12;
#X obj 18 317 outlet;
#X floatatom 36 82 5 0 0 0 - - - 0;
#X obj 18 250 +;
#X obj 109 250 r \$0-root;
#X obj 18 280 +;
#X connect 0 0 7 0;
#X connect 0 0 10 0;
#X connect 1 0 8 0;
#X connect 1 0 14 0;
#X connect 2 0 3 0;
#X connect 3 0 4 1;
#X connect 3 0 6 0;
#X connect 4 0 15 0;
#X connect 5 0 4 0;
#X connect 6 0 7 1;
#X connect 6 0 11 0;
#X connect 7 0 5 0;
#X connect 8 0 12 0;
#X connect 9 0 8 0;
#X connect 9 1 8 1;
#X connect 10 0 9 0;
#X connect 11 0 10 0;
#X connect 11 1 10 1;
#X connect 12 0 15 1;
#X connect 15 0 17 0;
#X connect 16 0 17 1;
#X connect 17 0 13 0;
#X restore 107 873 pd degree2note;
#X obj 19 844 route symbol, f 13;
#X obj 107 901 makenote 127, f 16;
#X obj 7 -20 cnv 15 300 180 empty empty Pattern 20 12 0 14 #ff8393 #5a5a5a 0;
#X listbox 18 21 40 0 0 2 Pattern \$0-toPattern \$0-pattern 0;
#X floatatom 19 62 5 0 10 2 Octave \$0-toOctave \$0-octave 0;
#X obj 107 987 s mcm-midinote;
#X obj 107 957 pack;
#X obj 254 985 noteout;
#X obj 305 658 r \$0-stretch;
#X obj 401 658 r \$0-shift;
#X listbox 175 132 20 0 0 2 Current\ event \$0-event - 8;
#X text 172 44 Pattern notation: degree:duration \, 0-3-5 = chord \, x = rest, f 17;
#N canvas 619 104 171 683 receive_params 0;
#X obj 146 25 r mcm-username;
#X obj 33 25 r mcm-address;
#X obj 33 73 s \$0-toAddress;
#X obj 146 72 s \$0-toUsername;
#X connect 0 0 3 0;
#X connect 1 0 2 0;
#X restore 499 29 pd receive_params;
#X msg 20 497 connect \$1 8080;
#X obj 7 164 cnv 15 300 180 empty empty Pattern\ presets 20 12 0 14 #ff8393 #5a5a5a 0;
#X msg 44 239 0:2 3:1 2:1 5:2 7:1;
#X msg 44 264 0:1 0:1 0:1 0:1 0:1 0:1 0:1 3-6:1;
#X msg 43 289 0-3 x:3 3:1 x:1 2:1 2:1 3:2 6:3 6:1;
#X msg 43 313 0-3-7:3 3:3 2:1 3:2 6:1 6:1 7:3 5:1;
#X obj 19 371 s \$0-toPattern;
#X msg 44 192 0:1;
#X msg 44 215 0-7:1;
#X obj 19 346 list;
#X msg 260 593 port \$1;
#X obj 260 543 r mcm-player-port;
#X obj 260 568 f;
#X connect 0 1 1 0;
#X connect 1 0 2 0;
#X connect 1 0 12 0;
#X connect 2 0 11 0;
#X connect 2 1 11 1;
#X connect 2 1 15 0;
#X connect 4 0 0 0;
#X connect 5 0 6 0;
#X connect 6 0 45 0;
#X connect 6 1 4 0;
#X connect 7 0 10 0;
#X connect 8 0 0 0;
#X connect 10 0 8 0;
#X connect 11 0 23 0;
#X connect 14 0 13 1;
#X connect 16 0 13 0;
#X connect 17 0 11 2;
#X connect 21 0 19 0;
#X connect 22 0 20 0;
#X connect 23 0 25 0;
#X connect 24 0 26 0;
#X connect 25 0 24 0;
#X connect 25 1 30 0;
#X connect 26 0 32 0;
#X connect 27 0 30 2;
#X connect 28 0 38 0;
#X connect 28 0 39 0;
#X connect 29 0 38 1;
#X connect 29 0 39 1;
#X connect 30 0 33 2;
#X connect 31 0 33 0;
#X connect 32 1 31 0;
#X connect 33 0 28 0;
#X connect 33 1 29 0;
#X connect 38 0 37 0;
#X connect 40 0 11 3;
#X connect 40 0 30 1;
#X connect 41 0 11 4;
#X connect 45 0 0 0;
#X connect 47 0 54 0;
#X connect 48 0 54 0;
#X connect 49 0 54 0;
#X connect 50 0 54 0;
#X connect 52 0 54 0;
#X connect 53 0 54 0;
#X connect 54 0 51 0;
#X connect 55 0 0 0;
#X connect 56 0 57 0;
#X connect 57 0 55 0;
